<svg xmlns="http://www.w3.org/2000/svg" width="60" height="60" viewBox="0 0 60 58.52">
  <path id="github" d="M30,0a30,30,0,0,0-9.487,58.463c1.5.262,2.063-.638,2.063-1.425,0-.712-.038-3.075-.038-5.587C15,52.838,13.05,49.613,12.45,47.925c-.337-.862-1.8-3.525-3.075-4.237-1.05-.562-2.55-1.95-.037-1.987,2.363-.038,4.05,2.175,4.613,3.075,2.7,4.538,7.012,3.263,8.737,2.475A6.311,6.311,0,0,1,24.6,43.238c-6.675-.75-13.65-3.338-13.65-14.813a11.675,11.675,0,0,1,3.075-8.062,10.78,10.78,0,0,1,.3-7.95s2.513-.788,8.25,3.075a28.284,28.284,0,0,1,15,0c5.737-3.9,8.25-3.075,8.25-3.075a10.78,10.78,0,0,1,.3,7.95A11.608,11.608,0,0,1,49.2,28.425c0,11.513-7.013,14.062-13.687,14.812,1.088.938,2.025,2.738,2.025,5.55,0,4.013-.038,7.238-.038,8.25,0,.787.562,1.725,2.063,1.425A30.016,30.016,0,0,0,30,0Z" fill="#fff"/>
</svg>
