<svg id="info-circle" xmlns="http://www.w3.org/2000/svg" width="30" height="30" viewBox="0 0 30 30">
  <path id="Pfad_1" data-name="Pfad 1" d="M15,28.125A13.125,13.125,0,1,1,28.125,15,13.125,13.125,0,0,1,15,28.125ZM15,30A15,15,0,1,0,0,15,15,15,0,0,0,15,30Z" fill="#fff"/>
  <path id="Pfad_2" data-name="Pfad 2" d="M11.056,9.29l-4.294.538-.154.713.844.156c.551.131.66.33.54.879l-1.384,6.5c-.364,1.682.2,2.473,1.515,2.473a3.883,3.883,0,0,0,2.747-1.121l.165-.78a2.077,2.077,0,0,1-1.286.461c-.516,0-.7-.362-.57-1Zm.131-3.915A1.875,1.875,0,1,1,9.312,3.5,1.875,1.875,0,0,1,11.187,5.375Z" transform="translate(5.688 3.063)" fill="#fff"/>
</svg>
