<svg xmlns="http://www.w3.org/2000/svg" width="60" height="60" viewBox="0 0 60 60">
  <path id="linkedin" d="M0,4.3A4.353,4.353,0,0,1,4.406,0H55.594A4.353,4.353,0,0,1,60,4.3V55.7A4.353,4.353,0,0,1,55.594,60H4.406A4.353,4.353,0,0,1,0,55.7Zm18.536,45.93V23.134h-9V50.228Zm-4.5-30.8c3.139,0,5.093-2.077,5.093-4.68a4.674,4.674,0,0,0-5.033-4.68c-3.083,0-5.1,2.025-5.1,4.68a4.66,4.66,0,0,0,4.976,4.68Zm18.405,30.8V35.1a6.114,6.114,0,0,1,.3-2.2,4.926,4.926,0,0,1,4.62-3.293c3.259,0,4.56,2.483,4.56,6.128V50.227h9V34.688c0-8.325-4.44-12.195-10.365-12.195a8.946,8.946,0,0,0-8.119,4.474v.094h-.06l.06-.094V23.134h-9c.112,2.543,0,27.094,0,27.094Z" fill="#fff"/>
</svg>
